<svg width="64" height="64" viewBox="0 0 64 64" fill="none" xmlns="http://www.w3.org/2000/svg">
<path d="M56 62H10C7.791 62 6 60.209 6 58C6 55.791 7.791 54 10 54H56V62Z" fill="white"/>
<path d="M6 4V53.537C7.062 52.584 8.461 52 10 52H12V2H8C6.896 2 6 2.896 6 4Z" fill="#BAD6EB"/>
<path d="M56 2H14V52H56H58V50V4C58 2.896 57.104 2 56 2Z" fill="#BAD6EB"/>
<path d="M60 52V4C60 1.789 58.211 0 56 0H8C5.789 0 4 1.789 4 4V58C4 61.313 6.687 64 10 64H59C59.553 64 60 63.553 60 63C60 62.447 59.553 62 59 62H58V54C59.104 54 60 53.104 60 52ZM6 4C6 2.896 6.896 2 8 2H12V52H10C8.461 52 7.062 52.584 6 53.537V4ZM56 62H10C7.791 62 6 60.209 6 58C6 55.791 7.791 54 10 54H56V62ZM56 52H14V2H56C57.104 2 58 2.896 58 4V50V52H56Z" fill="#041273"/>
<path d="M48.52 20H22.52C21.967 20 21.52 20.447 21.52 21C21.52 21.553 21.967 22 22.52 22H48.52C49.073 22 49.52 21.553 49.52 21C49.52 20.447 49.073 20 48.52 20Z" fill="#041273"/>
<path d="M23 16H35C35.553 16 36 15.553 36 15C36 14.447 35.553 14 35 14H23C22.447 14 22 14.447 22 15C22 15.553 22.447 16 23 16Z" fill="#041273"/>
<path opacity="0.2" d="M6 4V53.537C7.062 52.584 8.461 52 10 52H12V2H8C6.896 2 6 2.896 6 4Z" fill="#041273"/>
<path d="M22.632 31.94V35.948C22.632 36.444 22.48 36.836 22.176 37.124C21.8773 37.412 21.4827 37.556 20.992 37.556C20.5013 37.556 20.104 37.412 19.8 37.124C19.5013 36.836 19.352 36.444 19.352 35.948H20.272C20.2773 36.1933 20.3387 36.388 20.456 36.532C20.5787 36.676 20.7573 36.748 20.992 36.748C21.2267 36.748 21.4053 36.676 21.528 36.532C21.6507 36.3827 21.712 36.188 21.712 35.948V31.94H22.632ZM28.1876 33.092V37.5H27.2756V36.98C27.1316 37.1613 26.9423 37.3053 26.7076 37.412C26.4783 37.5133 26.233 37.564 25.9716 37.564C25.625 37.564 25.313 37.492 25.0356 37.348C24.7636 37.204 24.5476 36.9907 24.3876 36.708C24.233 36.4253 24.1556 36.084 24.1556 35.684V33.092H25.0596V35.548C25.0596 35.9427 25.1583 36.2467 25.3556 36.46C25.553 36.668 25.8223 36.772 26.1636 36.772C26.505 36.772 26.7743 36.668 26.9716 36.46C27.1743 36.2467 27.2756 35.9427 27.2756 35.548V33.092H28.1876ZM31.0709 37.572C30.7243 37.572 30.4123 37.5107 30.1349 37.388C29.8629 37.26 29.6469 37.0893 29.4869 36.876C29.3269 36.6573 29.2416 36.4147 29.2309 36.148H30.1749C30.1909 36.3347 30.2789 36.492 30.4389 36.62C30.6043 36.7427 30.8096 36.804 31.0549 36.804C31.3109 36.804 31.5083 36.756 31.6469 36.66C31.7909 36.5587 31.8629 36.4307 31.8629 36.276C31.8629 36.1107 31.7829 35.988 31.6229 35.908C31.4683 35.828 31.2203 35.74 30.8789 35.644C30.5483 35.5533 30.2789 35.4653 30.0709 35.38C29.8629 35.2947 29.6816 35.164 29.5269 34.988C29.3776 34.812 29.3029 34.58 29.3029 34.292C29.3029 34.0573 29.3723 33.844 29.5109 33.652C29.6496 33.4547 29.8469 33.3 30.1029 33.188C30.3643 33.076 30.6629 33.02 30.9989 33.02C31.5003 33.02 31.9029 33.148 32.2069 33.404C32.5163 33.6547 32.6816 33.9987 32.7029 34.436H31.7909C31.7749 34.2387 31.6949 34.0813 31.5509 33.964C31.4069 33.8467 31.2123 33.788 30.9669 33.788C30.7269 33.788 30.5429 33.8333 30.4149 33.924C30.2869 34.0147 30.2229 34.1347 30.2229 34.284C30.2229 34.4013 30.2656 34.5 30.3509 34.58C30.4363 34.66 30.5403 34.724 30.6629 34.772C30.7856 34.8147 30.9669 34.8707 31.2069 34.94C31.5269 35.0253 31.7883 35.1133 31.9909 35.204C32.1989 35.2893 32.3776 35.4173 32.5269 35.588C32.6763 35.7587 32.7536 35.9853 32.7589 36.268C32.7589 36.5187 32.6896 36.7427 32.5509 36.94C32.4123 37.1373 32.2149 37.292 31.9589 37.404C31.7083 37.516 31.4123 37.572 31.0709 37.572ZM34.8884 33.836V36.276C34.8884 36.4413 34.9257 36.5613 35.0004 36.636C35.0804 36.7053 35.2137 36.74 35.4004 36.74H35.9604V37.5H35.2404C34.8297 37.5 34.515 37.404 34.2964 37.212C34.0777 37.02 33.9684 36.708 33.9684 36.276V33.836H33.4484V33.092H33.9684V31.996H34.8884V33.092H35.9604V33.836H34.8884Z" fill="#344EAD"/>
<path d="M40.7689 33.596C40.7689 33.8787 40.7023 34.1453 40.5689 34.396C40.4356 34.6467 40.2223 34.852 39.9289 35.012C39.6356 35.1667 39.2596 35.244 38.8009 35.244H37.7929V37.5H36.8809V31.94H38.8009C39.2276 31.94 39.5876 32.0147 39.8809 32.164C40.1796 32.308 40.4009 32.5053 40.5449 32.756C40.6943 33.0067 40.7689 33.2867 40.7689 33.596ZM38.8009 34.5C39.1476 34.5 39.4063 34.4227 39.5769 34.268C39.7476 34.108 39.8329 33.884 39.8329 33.596C39.8329 32.988 39.4889 32.684 38.8009 32.684H37.7929V34.5H38.8009ZM45.8387 31.94L43.9987 35.484V37.5H43.0867V35.484L41.2387 31.94H42.2547L43.5427 34.668L44.8307 31.94H45.8387ZM50.9465 38.508L49.9705 37.452C49.7305 37.5213 49.4665 37.556 49.1785 37.556C48.6612 37.556 48.1838 37.436 47.7465 37.196C47.3145 36.9507 46.9705 36.612 46.7145 36.18C46.4638 35.7427 46.3385 35.252 46.3385 34.708C46.3385 34.164 46.4638 33.676 46.7145 33.244C46.9705 32.812 47.3145 32.476 47.7465 32.236C48.1838 31.9907 48.6612 31.868 49.1785 31.868C49.7012 31.868 50.1785 31.9907 50.6105 32.236C51.0478 32.476 51.3918 32.812 51.6425 33.244C51.8932 33.676 52.0185 34.164 52.0185 34.708C52.0185 35.22 51.9065 35.684 51.6825 36.1C51.4638 36.5107 51.1598 36.8413 50.7705 37.092L52.1065 38.508H50.9465ZM47.2745 34.708C47.2745 35.1187 47.3545 35.4813 47.5145 35.796C47.6798 36.1053 47.9065 36.3453 48.1945 36.516C48.4825 36.6813 48.8105 36.764 49.1785 36.764C49.5465 36.764 49.8745 36.6813 50.1625 36.516C50.4505 36.3453 50.6745 36.1053 50.8345 35.796C50.9998 35.4813 51.0825 35.1187 51.0825 34.708C51.0825 34.2973 50.9998 33.9373 50.8345 33.628C50.6745 33.3187 50.4505 33.0813 50.1625 32.916C49.8745 32.7507 49.5465 32.668 49.1785 32.668C48.8105 32.668 48.4825 32.7507 48.1945 32.916C47.9065 33.0813 47.6798 33.3187 47.5145 33.628C47.3545 33.9373 47.2745 34.2973 47.2745 34.708Z" fill="#041273"/>
</svg>
