<svg width="140" height="48" viewBox="0 0 140 48" fill="none" xmlns="http://www.w3.org/2000/svg">
<g clip-path="url(#clip0_272_867)">
<path d="M26.036 41.0751C28.9926 38.9328 33.0637 37.6364 37.1586 37.6364C38.7159 37.6364 40.2258 37.834 41.6172 38.2134V6.67977C39.1192 5.71533 36.5026 5.22522 33.8227 5.22522C31.1429 5.22522 28.5184 5.71533 26.0283 6.67977V41.0751H26.036Z" fill="white"/>
<path d="M15.5696 5.22522C12.8898 5.22522 10.2653 5.71533 7.77521 6.67977V38.2134C9.16654 37.834 10.6764 37.6364 12.2338 37.6364C16.3366 37.6364 20.3998 38.9328 23.3563 41.0751V6.67977C20.874 5.71533 18.2574 5.22522 15.5696 5.22522Z" fill="white"/>
<path d="M28.7001 8.6007C30.3602 8.12636 32.0835 7.90503 33.8306 7.90503C35.5776 7.90503 37.301 8.14213 38.9611 8.6007V35.0592C34.5262 34.4664 31.3248 35.5731 28.7081 36.6245V8.6007H28.7001Z" fill="white"/>
<path d="M20.7001 36.6165C14.8504 34.4505 14.7475 34.9644 10.4472 35.0513V8.6007C12.1073 8.12636 13.8306 7.90503 15.5777 7.90503C17.3248 7.90503 19.0481 8.14213 20.7082 8.6007V36.6165H20.7001Z" fill="white"/>
<path d="M44.7 8.23717H44.2811V5.77867C44.2811 5.24907 43.9728 4.76678 43.4747 4.5534C40.4075 3.23324 37.1664 2.55334 33.8147 2.55334C30.6684 2.55334 27.5933 3.16207 24.6842 4.3399C21.7751 3.16207 18.7 2.55334 15.5537 2.55334C12.2099 2.55334 8.96865 3.22529 5.8936 4.5534C5.40349 4.75896 5.08727 5.24112 5.08727 5.77867V8.23717H4.69988C2.49451 8.23717 0.700012 10.0315 0.700012 12.245V41.4466C0.700012 43.6521 2.49451 45.4466 4.7 45.4466H44.7C46.9055 45.4466 48.7 43.6521 48.7 41.4466V12.245C48.7 10.0315 46.9056 8.23717 44.7 8.23717ZM4.7 42.7747C3.96484 42.7747 3.36406 42.1819 3.36406 41.4388V12.245C3.36406 11.5098 3.95689 10.909 4.7 10.909H5.11894V40.0869C5.15844 41.0119 6.03594 41.6916 6.97666 41.3122C8.48649 40.664 10.3127 40.3083 12.2415 40.3083C15.4352 40.3083 18.6605 41.241 21.0953 42.7747H4.7ZM23.364 41.0751C20.4075 38.9328 16.3363 37.6364 12.2414 37.6364C10.6842 37.6364 9.1742 37.834 7.78287 38.2134V6.67977C10.2809 5.71533 12.8975 5.22522 15.5773 5.22522C18.2571 5.22522 20.8817 5.71533 23.3717 6.67977V41.0751H23.364ZM26.036 6.67977C28.534 5.71533 31.1506 5.22522 33.8304 5.22522C36.5103 5.22522 39.1348 5.71533 41.6249 6.67977V38.2134C40.2335 37.834 38.7237 37.6364 37.1663 37.6364C33.0635 37.6364 29.0003 38.9328 26.0437 41.0751V6.67977H26.036ZM46.036 41.4466C46.036 42.1817 45.4431 42.7825 44.7 42.7825H28.2969C30.7317 41.249 33.9649 40.3161 37.1507 40.3161C39.0795 40.3161 40.9056 40.6638 42.4155 41.32C43.3642 41.7152 44.3049 40.9801 44.2733 40.0947V10.9011H44.6922C45.4274 10.9011 46.0281 11.4939 46.0281 12.237V41.4466H46.036Z" fill="#041273"/>
<path d="M44.7 10.9011H44.281V40.079C44.3127 40.9643 43.3641 41.6917 42.4233 41.3043C40.9135 40.6561 39.0873 40.3003 37.1584 40.3003C33.9648 40.3003 30.7395 41.2331 28.3047 42.7668H44.7C45.4352 42.7668 46.0359 42.174 46.0359 41.4308V12.245C46.0359 11.5098 45.4352 10.9011 44.7 10.9011Z" fill="#BAD6EB"/>
<path d="M12.2494 40.3083C10.3205 40.3083 8.49443 40.6561 6.98449 41.3122C6.03582 41.6996 5.15844 41.0118 5.12677 40.0869V10.9011H4.70783C3.97266 10.9011 3.37189 11.4939 3.37189 12.2371V41.4387C3.37189 42.1738 3.96471 42.7746 4.70783 42.7746H21.1031C18.6526 41.2412 15.4273 40.3083 12.2494 40.3083Z" fill="#BAD6EB"/>
<path d="M11.9095 11.5259C11.3799 11.6523 11.0479 12.1899 11.1743 12.7274C11.3799 13.3282 11.8068 13.5417 12.3759 13.4626C14.4629 12.9645 16.6289 12.9408 18.8186 13.3994C19.3562 13.51 19.8779 13.1623 19.9886 12.6325C20.0993 12.095 19.7515 11.5732 19.2218 11.4625C16.7316 10.9409 14.2811 10.9567 11.9095 11.5259Z" fill="#041273"/>
<path d="M19.2534 17.7787C16.8028 17.1384 14.3521 17.0435 11.949 17.4941C11.4115 17.5969 11.0478 18.1186 11.1585 18.6562C11.3403 19.2727 11.7435 19.4942 12.3205 19.4468C14.4313 19.0515 16.5893 19.1385 18.7553 19.6998C19.2849 19.8341 19.8225 19.5179 19.9648 18.9883C20.1071 18.4664 19.7831 17.921 19.2534 17.7787Z" fill="#041273"/>
<path d="M12.281 25.4467C14.4075 25.1463 16.5577 25.3203 18.7 25.9843C19.2296 26.1424 19.7751 25.8499 19.9411 25.336C20.0992 24.8143 19.8067 24.2609 19.2928 24.0949C16.8738 23.3518 14.4233 23.1462 12.0043 23.4941C11.4667 23.5731 11.0873 24.0712 11.1663 24.6167C11.3166 25.2254 11.7197 25.4704 12.281 25.4467Z" fill="#041273"/>
<path d="M19.285 30.253C16.8582 29.5336 14.4075 29.3677 11.9885 29.7392C11.451 29.8261 11.0795 30.332 11.1585 30.8696C11.3166 31.4941 11.7277 31.7312 12.2889 31.6996C14.4074 31.3676 16.5656 31.5178 18.7158 32.1502C19.2454 32.3004 19.7909 32.0079 19.9411 31.4783C20.1071 30.9645 19.8068 30.4032 19.285 30.253Z" fill="#041273"/>
<path d="M30.5893 13.3993C32.771 12.9487 34.945 12.9644 37.032 13.4625C37.6012 13.5494 38.0122 13.3361 38.2335 12.7273C38.36 12.1977 38.0359 11.6602 37.4983 11.5258C35.1268 10.9566 32.6604 10.933 30.1861 11.4468C29.6485 11.5575 29.3086 12.0792 29.4193 12.6168C29.5221 13.162 30.0517 13.502 30.5893 13.3993Z" fill="#041273"/>
<path d="M30.6447 19.6996C32.8107 19.1304 34.9688 19.0514 37.0794 19.4466C37.6487 19.502 38.0518 19.2648 38.2415 18.6561C38.3442 18.1185 37.9885 17.5967 37.4509 17.494C35.0478 17.0434 32.5972 17.1463 30.1466 17.7786C29.617 17.9209 29.2928 18.4585 29.4352 18.9881C29.5775 19.5336 30.1149 19.842 30.6447 19.6996Z" fill="#041273"/>
<path d="M37.3957 23.4862C34.9767 23.1385 32.5262 23.3439 30.1072 24.087C29.5854 24.2451 29.2929 24.8064 29.459 25.3281C29.625 25.8498 30.1784 26.1423 30.7001 25.9763C32.8346 25.3123 35.0006 25.1383 37.1191 25.4387C37.6884 25.4704 38.0836 25.2253 38.2417 24.6007C38.3285 24.0633 37.9491 23.5652 37.3957 23.4862Z" fill="#041273"/>
<path d="M38.2415 30.8775C38.3284 30.3399 37.957 29.8261 37.4114 29.7471C35.0004 29.3677 32.5419 29.5415 30.115 30.2609C29.5854 30.4111 29.2929 30.9724 29.443 31.4862C29.5932 32.0158 30.1545 32.3083 30.6683 32.1582C32.8106 31.5257 34.9766 31.3755 37.0952 31.7075C37.6802 31.7392 38.0834 31.502 38.2415 30.8775Z" fill="#041273"/>
</g>
<path d="M60.816 22.27V29.284C60.816 30.152 60.55 30.838 60.018 31.342C59.4953 31.846 58.8046 32.098 57.946 32.098C57.0873 32.098 56.392 31.846 55.86 31.342C55.3373 30.838 55.076 30.152 55.076 29.284H56.686C56.6953 29.7133 56.8026 30.054 57.008 30.306C57.2226 30.558 57.5353 30.684 57.946 30.684C58.3566 30.684 58.6693 30.558 58.884 30.306C59.0986 30.0447 59.206 29.704 59.206 29.284V22.27H60.816ZM70.5383 24.286V32H68.9423V31.09C68.6903 31.4073 68.359 31.6593 67.9483 31.846C67.547 32.0233 67.1176 32.112 66.6603 32.112C66.0536 32.112 65.5076 31.986 65.0223 31.734C64.5463 31.482 64.1683 31.1087 63.8883 30.614C63.6176 30.1193 63.4823 29.522 63.4823 28.822V24.286H65.0643V28.584C65.0643 29.2747 65.237 29.8067 65.5823 30.18C65.9276 30.544 66.399 30.726 66.9963 30.726C67.5936 30.726 68.065 30.544 68.4103 30.18C68.765 29.8067 68.9423 29.2747 68.9423 28.584V24.286H70.5383ZM75.5841 32.126C74.9774 32.126 74.4314 32.0187 73.9461 31.804C73.4701 31.58 73.0921 31.2813 72.8121 30.908C72.5321 30.5253 72.3828 30.1007 72.3641 29.634H74.0161C74.0441 29.9607 74.1981 30.236 74.4781 30.46C74.7674 30.6747 75.1268 30.782 75.5561 30.782C76.0041 30.782 76.3494 30.698 76.5921 30.53C76.8441 30.3527 76.9701 30.1287 76.9701 29.858C76.9701 29.5687 76.8301 29.354 76.5501 29.214C76.2794 29.074 75.8454 28.92 75.2481 28.752C74.6694 28.5933 74.1981 28.4393 73.8341 28.29C73.4701 28.1407 73.1528 27.912 72.8821 27.604C72.6208 27.296 72.4901 26.89 72.4901 26.386C72.4901 25.9753 72.6114 25.602 72.8541 25.266C73.0968 24.9207 73.4421 24.65 73.8901 24.454C74.3474 24.258 74.8701 24.16 75.4581 24.16C76.3354 24.16 77.0401 24.384 77.5721 24.832C78.1134 25.2707 78.4028 25.8727 78.4401 26.638H76.8441C76.8161 26.2927 76.6761 26.0173 76.4241 25.812C76.1721 25.6067 75.8314 25.504 75.4021 25.504C74.9821 25.504 74.6601 25.5833 74.4361 25.742C74.2121 25.9007 74.1001 26.1107 74.1001 26.372C74.1001 26.5773 74.1748 26.75 74.3241 26.89C74.4734 27.03 74.6554 27.142 74.8701 27.226C75.0848 27.3007 75.4021 27.3987 75.8221 27.52C76.3821 27.6693 76.8394 27.8233 77.1941 27.982C77.5581 28.1313 77.8708 28.3553 78.1321 28.654C78.3934 28.9527 78.5288 29.3493 78.5381 29.844C78.5381 30.2827 78.4168 30.6747 78.1741 31.02C77.9314 31.3653 77.5861 31.636 77.1381 31.832C76.6994 32.028 76.1814 32.126 75.5841 32.126ZM82.2646 25.588V29.858C82.2646 30.1473 82.33 30.3573 82.4606 30.488C82.6006 30.6093 82.834 30.67 83.1606 30.67H84.1406V32H82.8806C82.162 32 81.6113 31.832 81.2286 31.496C80.846 31.16 80.6546 30.614 80.6546 29.858V25.588H79.7446V24.286H80.6546V22.368H82.2646V24.286H84.1406V25.588H82.2646Z" fill="#344EAD"/>
<path d="M98.1656 20.288C98.1656 21.136 97.9656 21.936 97.5656 22.688C97.1656 23.44 96.5256 24.056 95.6456 24.536C94.7656 25 93.6376 25.232 92.2616 25.232H89.2376V32H86.5016V15.32H92.2616C93.5416 15.32 94.6216 15.544 95.5016 15.992C96.3976 16.424 97.0616 17.016 97.4936 17.768C97.9416 18.52 98.1656 19.36 98.1656 20.288ZM92.2616 23C93.3016 23 94.0776 22.768 94.5896 22.304C95.1016 21.824 95.3576 21.152 95.3576 20.288C95.3576 18.464 94.3256 17.552 92.2616 17.552H89.2376V23H92.2616ZM113.375 15.32L107.855 25.952V32H105.119V25.952L99.575 15.32H102.623L106.487 23.504L110.351 15.32H113.375ZM128.698 35.024L125.77 31.856C125.05 32.064 124.258 32.168 123.394 32.168C121.842 32.168 120.41 31.808 119.098 31.088C117.802 30.352 116.77 29.336 116.002 28.04C115.25 26.728 114.874 25.256 114.874 23.624C114.874 21.992 115.25 20.528 116.002 19.232C116.77 17.936 117.802 16.928 119.098 16.208C120.41 15.472 121.842 15.104 123.394 15.104C124.962 15.104 126.394 15.472 127.69 16.208C129.002 16.928 130.034 17.936 130.786 19.232C131.538 20.528 131.914 21.992 131.914 23.624C131.914 25.16 131.578 26.552 130.906 27.8C130.25 29.032 129.338 30.024 128.17 30.776L132.178 35.024H128.698ZM117.682 23.624C117.682 24.856 117.922 25.944 118.402 26.888C118.898 27.816 119.578 28.536 120.442 29.048C121.306 29.544 122.29 29.792 123.394 29.792C124.498 29.792 125.482 29.544 126.346 29.048C127.21 28.536 127.882 27.816 128.362 26.888C128.858 25.944 129.106 24.856 129.106 23.624C129.106 22.392 128.858 21.312 128.362 20.384C127.882 19.456 127.21 18.744 126.346 18.248C125.482 17.752 124.498 17.504 123.394 17.504C122.29 17.504 121.306 17.752 120.442 18.248C119.578 18.744 118.898 19.456 118.402 20.384C117.922 21.312 117.682 22.392 117.682 23.624ZM136.967 32.126C136.36 32.126 135.814 32.0187 135.329 31.804C134.853 31.58 134.475 31.2813 134.195 30.908C133.915 30.5253 133.766 30.1007 133.747 29.634H135.399C135.427 29.9607 135.581 30.236 135.861 30.46C136.15 30.6747 136.51 30.782 136.939 30.782C137.387 30.782 137.732 30.698 137.975 30.53C138.227 30.3527 138.353 30.1287 138.353 29.858C138.353 29.5687 138.213 29.354 137.933 29.214C137.662 29.074 137.228 28.92 136.631 28.752C136.052 28.5933 135.581 28.4393 135.217 28.29C134.853 28.1407 134.536 27.912 134.265 27.604C134.004 27.296 133.873 26.89 133.873 26.386C133.873 25.9753 133.994 25.602 134.237 25.266C134.48 24.9207 134.825 24.65 135.273 24.454C135.73 24.258 136.253 24.16 136.841 24.16C137.718 24.16 138.423 24.384 138.955 24.832C139.496 25.2707 139.786 25.8727 139.823 26.638H138.227C138.199 26.2927 138.059 26.0173 137.807 25.812C137.555 25.6067 137.214 25.504 136.785 25.504C136.365 25.504 136.043 25.5833 135.819 25.742C135.595 25.9007 135.483 26.1107 135.483 26.372C135.483 26.5773 135.558 26.75 135.707 26.89C135.856 27.03 136.038 27.142 136.253 27.226C136.468 27.3007 136.785 27.3987 137.205 27.52C137.765 27.6693 138.222 27.8233 138.577 27.982C138.941 28.1313 139.254 28.3553 139.515 28.654C139.776 28.9527 139.912 29.3493 139.921 29.844C139.921 30.2827 139.8 30.6747 139.557 31.02C139.314 31.3653 138.969 31.636 138.521 31.832C138.082 32.028 137.564 32.126 136.967 32.126Z" fill="#041273"/>
<defs>
<clipPath id="clip0_272_867">
<rect width="48" height="48" fill="white" transform="translate(0.700012)"/>
</clipPath>
</defs>
</svg>
