<svg width="140" height="48" viewBox="0 0 140 48" fill="none" xmlns="http://www.w3.org/2000/svg">
<path d="M25.336 41.0752C28.2926 38.9329 32.3637 37.6365 36.4586 37.6365C38.0159 37.6365 39.5258 37.8341 40.9172 38.2136V6.67989C38.4192 5.71545 35.8026 5.22534 33.1227 5.22534C30.4429 5.22534 27.8184 5.71545 25.3283 6.67989V41.0752H25.336Z" fill="white"/>
<path d="M14.8696 5.22534C12.1898 5.22534 9.56524 5.71545 7.0752 6.67989V38.2136C8.46653 37.8341 9.97635 37.6365 11.5337 37.6365C15.6366 37.6365 19.6998 38.9329 22.6563 41.0752V6.67989C20.174 5.71545 17.5574 5.22534 14.8696 5.22534Z" fill="white"/>
<path d="M28.0001 8.60094C29.6602 8.1266 31.3835 7.90527 33.1306 7.90527C34.8776 7.90527 36.6009 8.14238 38.261 8.60094V35.0595C33.8262 34.4667 30.6247 35.5733 28.0081 36.6247V8.60094H28.0001Z" fill="white"/>
<path d="M20.0001 36.6168C14.1503 34.4508 14.0475 34.9646 9.74719 35.0515V8.60094C11.4073 8.1266 13.1306 7.90527 14.8777 7.90527C16.6247 7.90527 18.3481 8.14238 20.0082 8.60094V36.6168H20.0001Z" fill="white"/>
<path d="M44 8.23729H43.5811V5.7788C43.5811 5.24919 43.2728 4.76691 42.7747 4.55352C39.7075 3.23336 36.4664 2.55347 33.1146 2.55347C29.9684 2.55347 26.8933 3.16219 23.9842 4.34002C21.0751 3.16219 18 2.55347 14.8537 2.55347C11.5099 2.55347 8.26863 3.22541 5.19359 4.55352C4.70348 4.75908 4.38726 5.24124 4.38726 5.7788V8.23729H3.99987C1.7945 8.23729 0 10.0317 0 12.2451V41.4467C0 43.6522 1.7945 45.4467 3.99999 45.4467H44C46.2055 45.4467 48 43.6522 48 41.4467V12.2451C48 10.0317 46.2056 8.23729 44 8.23729ZM3.99999 42.7748C3.26483 42.7748 2.66405 42.182 2.66405 41.4389V12.2451C2.66405 11.5099 3.25688 10.9092 3.99999 10.9092H4.41893V40.087C4.45843 41.012 5.33593 41.6918 6.27665 41.3123C7.78647 40.6641 9.61264 40.3084 11.5415 40.3084C14.7352 40.3084 17.9605 41.2411 20.3953 42.7748H3.99999ZM22.664 41.0752C19.7074 38.9329 15.6363 37.6365 11.5414 37.6365C9.98414 37.6365 8.47419 37.8341 7.08286 38.2136V6.6799C9.58085 5.71545 12.1975 5.22534 14.8773 5.22534C17.5571 5.22534 20.1817 5.71545 22.6717 6.6799V41.0752H22.664ZM25.336 6.6799C27.834 5.71545 30.4506 5.22534 33.1304 5.22534C35.8102 5.22534 38.4348 5.71545 40.9248 6.6799V38.2136C39.5335 37.8341 38.0237 37.6365 36.4663 37.6365C32.3635 37.6365 28.3003 38.9329 25.3437 41.0752V6.6799H25.336ZM45.3359 41.4467C45.3359 42.1819 44.7431 42.7826 44 42.7826H27.5969C30.0317 41.2491 33.2649 40.3162 36.4506 40.3162C38.3795 40.3162 40.2056 40.664 41.7155 41.3201C42.6642 41.7154 43.6049 40.9802 43.5732 40.0949V10.9012H43.9922C44.7273 10.9012 45.3281 11.494 45.3281 12.2372V41.4467H45.3359Z" fill="#BAD6EB"/>
<path d="M44 10.9011H43.581V40.079C43.6127 40.9643 42.664 41.6917 41.7233 41.3043C40.2135 40.6561 38.3873 40.3003 36.4584 40.3003C33.2648 40.3003 30.0394 41.2331 27.6047 42.7668H44C44.7351 42.7668 45.3359 42.174 45.3359 41.4308V12.245C45.3359 11.5098 44.7351 10.9011 44 10.9011Z" fill="white"/>
<path d="M11.5494 40.3083C9.62047 40.3083 7.79442 40.6561 6.28447 41.3122C5.3358 41.6996 4.45843 41.0118 4.42675 40.0869V10.9011H4.00781C3.27265 10.9011 2.67188 11.4939 2.67188 12.2371V41.4387C2.67188 42.1738 3.2647 42.7746 4.00781 42.7746H20.4031C17.9526 41.2412 14.7272 40.3083 11.5494 40.3083Z" fill="white"/>
<path d="M11.2095 11.526C10.6799 11.6524 10.3479 12.19 10.4743 12.7276C10.6799 13.3283 11.1068 13.5418 11.6759 13.4627C13.7629 12.9647 15.9289 12.9409 18.1186 13.3995C18.6561 13.5102 19.1779 13.1624 19.2886 12.6327C19.3993 12.0951 19.0515 11.5733 18.5218 11.4627C16.0316 10.941 13.581 10.9568 11.2095 11.526Z" fill="#BAD6EB"/>
<path d="M18.5533 17.7788C16.1028 17.1385 13.6521 17.0437 11.249 17.4943C10.7115 17.597 10.3478 18.1188 10.4585 18.6563C10.6403 19.2729 11.0435 19.4943 11.6205 19.4469C13.7312 19.0517 15.8893 19.1386 18.0553 19.6999C18.5849 19.8343 19.1224 19.518 19.2648 18.9884C19.4071 18.4665 19.0831 17.9212 18.5533 17.7788Z" fill="#BAD6EB"/>
<path d="M11.581 25.4467C13.7075 25.1463 15.8577 25.3203 18 25.9843C18.5296 26.1424 19.0751 25.8499 19.241 25.336C19.3992 24.8143 19.1067 24.2609 18.5928 24.0949C16.1738 23.3518 13.7233 23.1462 11.3043 23.4941C10.7667 23.5731 10.3873 24.0712 10.4663 24.6167C10.6166 25.2254 11.0197 25.4704 11.581 25.4467Z" fill="#BAD6EB"/>
<path d="M18.585 30.2531C16.1582 29.5337 13.7075 29.3678 11.2885 29.7393C10.751 29.8262 10.3795 30.3321 10.4585 30.8697C10.6166 31.4942 11.0277 31.7313 11.5888 31.6997C13.7074 31.3677 15.8656 31.5179 18.0158 32.1503C18.5454 32.3005 19.0909 32.008 19.2411 31.4784C19.4071 30.9646 19.1068 30.4033 18.585 30.2531Z" fill="#BAD6EB"/>
<path d="M29.8892 13.3994C32.071 12.9488 34.245 12.9646 36.332 13.4626C36.9012 13.5496 37.3122 13.3362 37.5335 12.7275C37.6599 12.1978 37.3359 11.6603 36.7983 11.5259C34.4268 10.9567 31.9603 10.9331 29.4861 11.4469C28.9485 11.5576 28.6086 12.0794 28.7192 12.6169C28.8221 13.1622 29.3517 13.5021 29.8892 13.3994Z" fill="#BAD6EB"/>
<path d="M29.9447 19.6997C32.1107 19.1305 34.2688 19.0515 36.3794 19.4467C36.9486 19.5021 37.3518 19.2649 37.5415 18.6561C37.6442 18.1186 37.2885 17.5968 36.7509 17.4941C34.3478 17.0435 31.8971 17.1463 29.4466 17.7786C28.917 17.921 28.5928 18.4585 28.7352 18.9881C28.8775 19.5336 29.4149 19.842 29.9447 19.6997Z" fill="#BAD6EB"/>
<path d="M36.6957 23.4865C34.2767 23.1387 31.8262 23.3441 29.4072 24.0873C28.8854 24.2454 28.5929 24.8066 28.759 25.3283C28.925 25.8501 29.4784 26.1426 30.0001 25.9765C32.1346 25.3125 34.3006 25.1385 36.4191 25.439C36.9883 25.4706 37.3836 25.2256 37.5417 24.601C37.6285 24.0635 37.2491 23.5655 36.6957 23.4865Z" fill="#BAD6EB"/>
<path d="M37.5415 30.8776C37.6284 30.3401 37.2569 29.8262 36.7114 29.7472C34.3004 29.3678 31.8419 29.5417 29.415 30.2611C28.8853 30.4112 28.5928 30.9725 28.743 31.4863C28.8932 32.0159 29.4544 32.3084 29.9683 32.1583C32.1106 31.5258 34.2765 31.3757 36.3952 31.7077C36.9802 31.7393 37.3834 31.5021 37.5415 30.8776Z" fill="#BAD6EB"/>
<path d="M60.1159 22.27V29.284C60.1159 30.152 59.8499 30.838 59.3179 31.342C58.7953 31.846 58.1046 32.098 57.2459 32.098C56.3873 32.098 55.6919 31.846 55.1599 31.342C54.6373 30.838 54.3759 30.152 54.3759 29.284H55.9859C55.9953 29.7133 56.1026 30.054 56.3079 30.306C56.5226 30.558 56.8353 30.684 57.2459 30.684C57.6566 30.684 57.9693 30.558 58.1839 30.306C58.3986 30.0447 58.5059 29.704 58.5059 29.284V22.27H60.1159ZM69.8383 24.286V32H68.2423V31.09C67.9903 31.4073 67.659 31.6593 67.2483 31.846C66.847 32.0233 66.4176 32.112 65.9603 32.112C65.3536 32.112 64.8076 31.986 64.3223 31.734C63.8463 31.482 63.4683 31.1087 63.1883 30.614C62.9176 30.1193 62.7823 29.522 62.7823 28.822V24.286H64.3643V28.584C64.3643 29.2747 64.537 29.8067 64.8823 30.18C65.2276 30.544 65.699 30.726 66.2963 30.726C66.8936 30.726 67.365 30.544 67.7103 30.18C68.065 29.8067 68.2423 29.2747 68.2423 28.584V24.286H69.8383ZM74.8841 32.126C74.2774 32.126 73.7314 32.0187 73.2461 31.804C72.7701 31.58 72.3921 31.2813 72.1121 30.908C71.8321 30.5253 71.6828 30.1007 71.6641 29.634H73.3161C73.3441 29.9607 73.4981 30.236 73.7781 30.46C74.0674 30.6747 74.4268 30.782 74.8561 30.782C75.3041 30.782 75.6494 30.698 75.8921 30.53C76.1441 30.3527 76.2701 30.1287 76.2701 29.858C76.2701 29.5687 76.1301 29.354 75.8501 29.214C75.5794 29.074 75.1454 28.92 74.5481 28.752C73.9694 28.5933 73.4981 28.4393 73.1341 28.29C72.7701 28.1407 72.4528 27.912 72.1821 27.604C71.9208 27.296 71.7901 26.89 71.7901 26.386C71.7901 25.9753 71.9114 25.602 72.1541 25.266C72.3968 24.9207 72.7421 24.65 73.1901 24.454C73.6474 24.258 74.1701 24.16 74.7581 24.16C75.6354 24.16 76.3401 24.384 76.8721 24.832C77.4134 25.2707 77.7028 25.8727 77.7401 26.638H76.1441C76.1161 26.2927 75.9761 26.0173 75.7241 25.812C75.4721 25.6067 75.1314 25.504 74.7021 25.504C74.2821 25.504 73.9601 25.5833 73.7361 25.742C73.5121 25.9007 73.4001 26.1107 73.4001 26.372C73.4001 26.5773 73.4748 26.75 73.6241 26.89C73.7734 27.03 73.9554 27.142 74.1701 27.226C74.3848 27.3007 74.7021 27.3987 75.1221 27.52C75.6821 27.6693 76.1394 27.8233 76.4941 27.982C76.8581 28.1313 77.1708 28.3553 77.4321 28.654C77.6934 28.9527 77.8288 29.3493 77.8381 29.844C77.8381 30.2827 77.7168 30.6747 77.4741 31.02C77.2314 31.3653 76.8861 31.636 76.4381 31.832C75.9994 32.028 75.4814 32.126 74.8841 32.126ZM81.5646 25.588V29.858C81.5646 30.1473 81.6299 30.3573 81.7606 30.488C81.9006 30.6093 82.1339 30.67 82.4606 30.67H83.4406V32H82.1806C81.4619 32 80.9113 31.832 80.5286 31.496C80.1459 31.16 79.9546 30.614 79.9546 29.858V25.588H79.0446V24.286H79.9546V22.368H81.5646V24.286H83.4406V25.588H81.5646ZM97.4656 20.288C97.4656 21.136 97.2656 21.936 96.8656 22.688C96.4656 23.44 95.8256 24.056 94.9456 24.536C94.0656 25 92.9376 25.232 91.5616 25.232H88.5376V32H85.8016V15.32H91.5616C92.8416 15.32 93.9216 15.544 94.8016 15.992C95.6976 16.424 96.3616 17.016 96.7936 17.768C97.2416 18.52 97.4656 19.36 97.4656 20.288ZM91.5616 23C92.6016 23 93.3776 22.768 93.8896 22.304C94.4016 21.824 94.6576 21.152 94.6576 20.288C94.6576 18.464 93.6256 17.552 91.5616 17.552H88.5376V23H91.5616ZM112.675 15.32L107.155 25.952V32H104.419V25.952L98.875 15.32H101.923L105.787 23.504L109.651 15.32H112.675ZM127.998 35.024L125.07 31.856C124.35 32.064 123.558 32.168 122.694 32.168C121.142 32.168 119.71 31.808 118.398 31.088C117.102 30.352 116.07 29.336 115.302 28.04C114.55 26.728 114.174 25.256 114.174 23.624C114.174 21.992 114.55 20.528 115.302 19.232C116.07 17.936 117.102 16.928 118.398 16.208C119.71 15.472 121.142 15.104 122.694 15.104C124.262 15.104 125.694 15.472 126.99 16.208C128.302 16.928 129.334 17.936 130.086 19.232C130.838 20.528 131.214 21.992 131.214 23.624C131.214 25.16 130.878 26.552 130.206 27.8C129.55 29.032 128.638 30.024 127.47 30.776L131.478 35.024H127.998ZM116.982 23.624C116.982 24.856 117.222 25.944 117.702 26.888C118.198 27.816 118.878 28.536 119.742 29.048C120.606 29.544 121.59 29.792 122.694 29.792C123.798 29.792 124.782 29.544 125.646 29.048C126.51 28.536 127.182 27.816 127.662 26.888C128.158 25.944 128.406 24.856 128.406 23.624C128.406 22.392 128.158 21.312 127.662 20.384C127.182 19.456 126.51 18.744 125.646 18.248C124.782 17.752 123.798 17.504 122.694 17.504C121.59 17.504 120.606 17.752 119.742 18.248C118.878 18.744 118.198 19.456 117.702 20.384C117.222 21.312 116.982 22.392 116.982 23.624ZM136.267 32.126C135.66 32.126 135.114 32.0187 134.629 31.804C134.153 31.58 133.775 31.2813 133.495 30.908C133.215 30.5253 133.066 30.1007 133.047 29.634H134.699C134.727 29.9607 134.881 30.236 135.161 30.46C135.45 30.6747 135.81 30.782 136.239 30.782C136.687 30.782 137.032 30.698 137.275 30.53C137.527 30.3527 137.653 30.1287 137.653 29.858C137.653 29.5687 137.513 29.354 137.233 29.214C136.962 29.074 136.528 28.92 135.931 28.752C135.352 28.5933 134.881 28.4393 134.517 28.29C134.153 28.1407 133.836 27.912 133.565 27.604C133.304 27.296 133.173 26.89 133.173 26.386C133.173 25.9753 133.294 25.602 133.537 25.266C133.78 24.9207 134.125 24.65 134.573 24.454C135.03 24.258 135.553 24.16 136.141 24.16C137.018 24.16 137.723 24.384 138.255 24.832C138.796 25.2707 139.086 25.8727 139.123 26.638H137.527C137.499 26.2927 137.359 26.0173 137.107 25.812C136.855 25.6067 136.514 25.504 136.085 25.504C135.665 25.504 135.343 25.5833 135.119 25.742C134.895 25.9007 134.783 26.1107 134.783 26.372C134.783 26.5773 134.858 26.75 135.007 26.89C135.156 27.03 135.338 27.142 135.553 27.226C135.768 27.3007 136.085 27.3987 136.505 27.52C137.065 27.6693 137.522 27.8233 137.877 27.982C138.241 28.1313 138.554 28.3553 138.815 28.654C139.076 28.9527 139.212 29.3493 139.221 29.844C139.221 30.2827 139.1 30.6747 138.857 31.02C138.614 31.3653 138.269 31.636 137.821 31.832C137.382 32.028 136.864 32.126 136.267 32.126Z" fill="white"/>
</svg>
