<svg width="25" height="18" viewBox="0 0 25 18" fill="none" xmlns="http://www.w3.org/2000/svg">
<path d="M24.0957 9C24.0957 9.26522 23.9903 9.51957 23.8028 9.70711C23.6153 9.89464 23.3609 10 23.0957 10H1.0957C0.830487 10 0.576133 9.89464 0.388597 9.70711C0.20106 9.51957 0.0957031 9.26522 0.0957031 9C0.0957031 8.73478 0.20106 8.48043 0.388597 8.29289C0.576133 8.10536 0.830487 8 1.0957 8H23.0957C23.3609 8 23.6153 8.10536 23.8028 8.29289C23.9903 8.48043 24.0957 8.73478 24.0957 9ZM1.0957 2H23.0957C23.3609 2 23.6153 1.89464 23.8028 1.70711C23.9903 1.51957 24.0957 1.26522 24.0957 1C24.0957 0.734784 23.9903 0.48043 23.8028 0.292893C23.6153 0.105357 23.3609 0 23.0957 0H1.0957C0.830487 0 0.576133 0.105357 0.388597 0.292893C0.20106 0.48043 0.0957031 0.734784 0.0957031 1C0.0957031 1.26522 0.20106 1.51957 0.388597 1.70711C0.576133 1.89464 0.830487 2 1.0957 2ZM23.0957 16H1.0957C0.830487 16 0.576133 16.1054 0.388597 16.2929C0.20106 16.4804 0.0957031 16.7348 0.0957031 17C0.0957031 17.2652 0.20106 17.5196 0.388597 17.7071C0.576133 17.8946 0.830487 18 1.0957 18H23.0957C23.3609 18 23.6153 17.8946 23.8028 17.7071C23.9903 17.5196 24.0957 17.2652 24.0957 17C24.0957 16.7348 23.9903 16.4804 23.8028 16.2929C23.6153 16.1054 23.3609 16 23.0957 16Z" fill="black"/>
</svg>
