<svg width="20" height="21" viewBox="0 0 20 21" fill="none" xmlns="http://www.w3.org/2000/svg">
<path d="M10.7027 15.6306C12.0871 16.3274 13.7098 16.8357 15.6048 17.0678C16.1781 17.138 16.6667 16.6776 16.6667 16.1V14.614C16.6667 14.1552 16.3544 13.7552 15.9092 13.6439L13.8827 13.1372C13.5419 13.052 13.1814 13.1519 12.933 13.4003L10.7027 15.6306ZM10.7027 15.6306C8.10628 14.3239 6.34758 12.3541 5.20101 10.2989M5.20101 10.2989C4.14695 8.40962 3.61022 6.44819 3.41559 4.86353C3.34667 4.3024 3.80192 3.83325 4.36726 3.83325H5.8469C6.32359 3.83325 6.734 4.16971 6.82748 4.63714L7.39508 7.47513C7.46065 7.80299 7.35803 8.14193 7.12161 8.37835L5.20101 10.2989Z" stroke="white" stroke-width="1.5"/>
</svg>
