<svg width="28" height="28" viewBox="0 0 28 28" fill="none" xmlns="http://www.w3.org/2000/svg">
<path d="M14.0001 8C12.8134 8 11.6533 8.35189 10.6666 9.01118C9.67994 9.67047 8.91091 10.6075 8.45678 11.7039C8.00265 12.8003 7.88383 14.0067 8.11535 15.1705C8.34686 16.3344 8.9183 17.4035 9.75742 18.2426C10.5965 19.0818 11.6656 19.6532 12.8295 19.8847C13.9934 20.1162 15.1998 19.9974 16.2962 19.5433C17.3925 19.0891 18.3296 18.3201 18.9889 17.3334C19.6482 16.3467 20.0001 15.1867 20.0001 14C19.9984 12.4092 19.3657 10.884 18.2409 9.75918C17.116 8.63432 15.5908 8.00165 14.0001 8ZM14.0001 18C13.2089 18 12.4356 17.7654 11.7778 17.3259C11.12 16.8863 10.6073 16.2616 10.3045 15.5307C10.0018 14.7998 9.92257 13.9956 10.0769 13.2196C10.2313 12.4437 10.6122 11.731 11.1716 11.1716C11.731 10.6122 12.4438 10.2312 13.2197 10.0769C13.9956 9.92251 14.7999 10.0017 15.5308 10.3045C16.2617 10.6072 16.8864 11.1199 17.3259 11.7777C17.7655 12.4355 18.0001 13.2089 18.0001 14C18.0001 15.0609 17.5786 16.0783 16.8285 16.8284C16.0783 17.5786 15.0609 18 14.0001 18ZM25.0001 14.27C25.0051 14.09 25.0051 13.91 25.0001 13.73L26.8651 11.4C26.9628 11.2777 27.0305 11.1341 27.0627 10.9808C27.0948 10.8275 27.0905 10.6688 27.0501 10.5175C26.7443 9.36825 26.287 8.26481 25.6901 7.23625C25.6119 7.10164 25.5034 6.98714 25.3732 6.90186C25.243 6.81658 25.0947 6.76286 24.9401 6.745L21.9751 6.415C21.8517 6.285 21.7267 6.16 21.6001 6.04L21.2501 3.0675C21.2321 2.91276 21.1782 2.76437 21.0926 2.63416C21.0071 2.50395 20.8924 2.39551 20.7576 2.3175C19.7286 1.72168 18.6253 1.26479 17.4763 0.958746C17.3249 0.918492 17.1662 0.914375 17.0129 0.946726C16.8596 0.979078 16.716 1.04699 16.5938 1.145L14.2701 3C14.0901 3 13.9101 3 13.7301 3L11.4001 1.13875C11.2777 1.04096 11.1341 0.973268 10.9808 0.941135C10.8276 0.909002 10.6689 0.913321 10.5176 0.953746C9.36849 1.26003 8.26513 1.71735 7.23631 2.31375C7.1017 2.3919 6.9872 2.5004 6.90192 2.63061C6.81664 2.76081 6.76292 2.90913 6.74506 3.06375L6.41506 6.03375C6.28506 6.15791 6.16006 6.28291 6.04006 6.40875L3.06756 6.75C2.91282 6.768 2.76443 6.8219 2.63422 6.90741C2.50401 6.99291 2.39557 7.10766 2.31756 7.2425C1.72174 8.27145 1.26485 9.3748 0.958807 10.5237C0.918553 10.6752 0.914436 10.8339 0.946787 10.9872C0.979139 11.1405 1.04705 11.284 1.14506 11.4062L3.00006 13.73C3.00006 13.91 3.00006 14.09 3.00006 14.27L1.13881 16.6C1.04102 16.7223 0.973329 16.8659 0.941196 17.0192C0.909063 17.1725 0.913382 17.3312 0.953807 17.4825C1.25954 18.6317 1.71689 19.7352 2.31381 20.7637C2.39196 20.8983 2.50046 21.0128 2.63067 21.0981C2.76087 21.1834 2.90919 21.2371 3.06381 21.255L6.02881 21.585C6.15297 21.715 6.27797 21.84 6.40381 21.96L6.75006 24.9325C6.76806 25.0872 6.82196 25.2356 6.90747 25.3658C6.99298 25.496 7.10772 25.6045 7.24256 25.6825C8.27151 26.2783 9.37486 26.7352 10.5238 27.0412C10.6752 27.0815 10.834 27.0856 10.9872 27.0533C11.1405 27.0209 11.2841 26.953 11.4063 26.855L13.7301 25C13.9101 25.005 14.0901 25.005 14.2701 25L16.6001 26.865C16.7224 26.9628 16.866 27.0305 17.0193 27.0626C17.1726 27.0947 17.3312 27.0904 17.4826 27.05C18.6318 26.7443 19.7352 26.2869 20.7638 25.69C20.8984 25.6118 21.0129 25.5033 21.0982 25.3731C21.1835 25.2429 21.2372 25.0946 21.2551 24.94L21.5851 21.975C21.7151 21.8517 21.8401 21.7267 21.9601 21.6L24.9326 21.25C25.0873 21.232 25.2357 21.1781 25.3659 21.0926C25.4961 21.0071 25.6045 20.8923 25.6826 20.7575C26.2784 19.7285 26.7353 18.6252 27.0413 17.4762C27.0816 17.3248 27.0857 17.1661 27.0533 17.0128C27.021 16.8595 26.9531 16.716 26.8551 16.5937L25.0001 14.27ZM22.9876 13.4575C23.0088 13.8189 23.0088 14.1811 22.9876 14.5425C22.9727 14.7899 23.0502 15.034 23.2051 15.2275L24.9788 17.4437C24.7753 18.0906 24.5147 18.718 24.2001 19.3187L21.3751 19.6387C21.129 19.6661 20.9019 19.7836 20.7376 19.9687C20.4969 20.2394 20.2407 20.4956 19.9701 20.7362C19.7849 20.9006 19.6674 21.1277 19.6401 21.3737L19.3263 24.1962C18.7257 24.511 18.0982 24.7716 17.4513 24.975L15.2338 23.2012C15.0564 23.0595 14.8359 22.9823 14.6088 22.9825H14.5488C14.1875 23.0037 13.8252 23.0037 13.4638 22.9825C13.2164 22.9676 12.9723 23.0451 12.7788 23.2L10.5563 24.975C9.90947 24.7715 9.28201 24.5109 8.68131 24.1962L8.36131 21.375C8.334 21.129 8.21642 20.9018 8.03131 20.7375C7.76069 20.4969 7.50442 20.2406 7.26381 19.97C7.09947 19.7849 6.87233 19.6673 6.62631 19.64L3.80381 19.325C3.48905 18.7244 3.22843 18.0969 3.02506 17.45L4.79881 15.2325C4.95369 15.039 5.0312 14.7949 5.01631 14.5475C4.99506 14.1861 4.99506 13.8239 5.01631 13.4625C5.0312 13.2151 4.95369 12.971 4.79881 12.7775L3.02506 10.5562C3.22859 9.90941 3.4892 9.28194 3.80381 8.68125L6.62506 8.36125C6.87108 8.33394 7.09822 8.21636 7.26256 8.03125C7.50317 7.76063 7.75944 7.50436 8.03006 7.26375C8.2159 7.09931 8.33397 6.87164 8.36131 6.625L8.67506 3.80375C9.27569 3.48899 9.90317 3.22837 10.5501 3.025L12.7676 4.79875C12.961 4.95363 13.2052 5.03114 13.4526 5.01625C13.8139 4.995 14.1762 4.995 14.5376 5.01625C14.785 5.03114 15.0291 4.95363 15.2226 4.79875L17.4438 3.025C18.0906 3.22853 18.7181 3.48914 19.3188 3.80375L19.6388 6.625C19.6661 6.87101 19.7837 7.09816 19.9688 7.2625C20.2394 7.50311 20.4957 7.75938 20.7363 8.03C20.9006 8.21511 21.1278 8.33269 21.3738 8.36L24.1963 8.67375C24.5111 9.27437 24.7717 9.90186 24.9751 10.5487L23.2013 12.7662C23.0449 12.9614 22.9673 13.208 22.9838 13.4575H22.9876Z" fill="white"/>
</svg>
