<svg width="25" height="24" viewBox="0 0 25 24" fill="none" xmlns="http://www.w3.org/2000/svg">
<mask id="mask0_324_5214" style="mask-type:alpha" maskUnits="userSpaceOnUse" x="0" y="0" width="25" height="24">
<rect x="0.5" width="24" height="24" fill="#D9D9D9"/>
</mask>
<g mask="url(#mask0_324_5214)">
<path d="M6.5 22C5.66667 22 4.95833 21.7083 4.375 21.125C3.79167 20.5417 3.5 19.8333 3.5 19V16H6.5V2H21.5V19C21.5 19.8333 21.2083 20.5417 20.625 21.125C20.0417 21.7083 19.3333 22 18.5 22H6.5ZM18.5 20C18.7833 20 19.0208 19.9042 19.2125 19.7125C19.4042 19.5208 19.5 19.2833 19.5 19V4H8.5V16H17.5V19C17.5 19.2833 17.5958 19.5208 17.7875 19.7125C17.9792 19.9042 18.2167 20 18.5 20ZM9.5 9V7H18.5V9H9.5ZM9.5 12V10H18.5V12H9.5ZM6.5 20H15.5V18H5.5V19C5.5 19.2833 5.59583 19.5208 5.7875 19.7125C5.97917 19.9042 6.21667 20 6.5 20ZM6.5 20H5.5H15.5H6.5Z" fill="#000734"/>
</g>
</svg>
