<svg width="33" height="32" viewBox="0 0 33 32" fill="none" xmlns="http://www.w3.org/2000/svg">
<path d="M13.6875 30.4375C13.6875 30.7856 13.5492 31.1194 13.3031 31.3656C13.0569 31.6117 12.7231 31.75 12.375 31.75H1.875C1.5269 31.75 1.19306 31.6117 0.946923 31.3656C0.700781 31.1194 0.5625 30.7856 0.5625 30.4375V1.5625C0.5625 1.2144 0.700781 0.880564 0.946923 0.634423C1.19306 0.388281 1.5269 0.25 1.875 0.25H12.375C12.7231 0.25 13.0569 0.388281 13.3031 0.634423C13.5492 0.880564 13.6875 1.2144 13.6875 1.5625C13.6875 1.9106 13.5492 2.24444 13.3031 2.49058C13.0569 2.73672 12.7231 2.875 12.375 2.875H3.1875V29.125H12.375C12.7231 29.125 13.0569 29.2633 13.3031 29.5094C13.5492 29.7556 13.6875 30.0894 13.6875 30.4375ZM31.6786 15.0714L25.1161 8.50891C24.8698 8.26263 24.5358 8.12427 24.1875 8.12427C23.8392 8.12427 23.5052 8.26263 23.2589 8.50891C23.0126 8.75518 22.8743 9.08921 22.8743 9.4375C22.8743 9.78579 23.0126 10.1198 23.2589 10.3661L27.582 14.6875H12.375C12.0269 14.6875 11.6931 14.8258 11.4469 15.0719C11.2008 15.3181 11.0625 15.6519 11.0625 16C11.0625 16.3481 11.2008 16.6819 11.4469 16.9281C11.6931 17.1742 12.0269 17.3125 12.375 17.3125H27.582L23.2589 21.6339C23.0126 21.8802 22.8743 22.2142 22.8743 22.5625C22.8743 22.9108 23.0126 23.2448 23.2589 23.4911C23.5052 23.7374 23.8392 23.8757 24.1875 23.8757C24.5358 23.8757 24.8698 23.7374 25.1161 23.4911L31.6786 16.9286C31.8006 16.8067 31.8974 16.6619 31.9635 16.5026C32.0295 16.3433 32.0635 16.1725 32.0635 16C32.0635 15.8275 32.0295 15.6567 31.9635 15.4974C31.8974 15.3381 31.8006 15.1933 31.6786 15.0714Z" fill="#000734"/>
</svg>
